<svg width="20" height="20" viewBox="0 0 20 20" fill="none" xmlns="http://www.w3.org/2000/svg">
<path d="M10.05 17.9273C9.62042 18.1982 9.40567 18.3337 9.16667 18.3337C8.92767 18.3337 8.71283 18.1982 8.28333 17.9273L6.69094 16.9231C6.28679 16.6682 6.08472 16.5407 5.86044 16.5334C5.6181 16.5254 5.41244 16.6477 4.97572 16.9231C4.48662 17.2315 3.51406 18.0812 2.88496 17.676C2.5 17.4281 2.5 16.7982 2.5 15.5385V6.66701C2.5 4.30998 2.5 3.13146 3.18916 2.39923C3.87832 1.66699 4.98751 1.66699 7.20588 1.66699H11.1274C13.3458 1.66699 14.455 1.66699 15.1442 2.39923C15.8333 3.13146 15.8333 4.30998 15.8333 6.66701V10.0003" stroke="black" stroke-linecap="round" stroke-linejoin="round"/>
<path d="M9.16634 9.16699H5.83301" stroke="black" stroke-linecap="round" stroke-linejoin="round"/>
<path d="M12.4997 5.83301H5.83301" stroke="black" stroke-linecap="round" stroke-linejoin="round"/>
<path d="M13 16.75C13.4915 17.2051 14.7997 19 15.5 19C16.2002 19 17.5085 17.2051 18 16.75M15.5 18.25V13" stroke="black" stroke-linecap="round" stroke-linejoin="round"/>
</svg>
