<?xml version="1.0" encoding="UTF-8"?>
<svg version="1.1" xmlns="http://www.w3.org/2000/svg" width="225" height="225">
<path d="M0 0 C74.25 0 148.5 0 225 0 C225 74.25 225 148.5 225 225 C150.75 225 76.5 225 0 225 C0 150.75 0 76.5 0 0 Z " fill="#FDFDFE" transform="translate(0,0)"/>
<path d="M0 0 C4.94458997 2.28915256 9.15937277 2.58029096 14.55078125 2.4375 C15.42331543 2.4271875 16.29584961 2.416875 17.19482422 2.40625 C23.37257191 2.25115056 29.01821794 1.2731307 34.99609375 -0.31640625 C44.57677257 -2.65152992 54.79776227 -0.60953231 63.23046875 4.4609375 C65.16709565 5.90061863 66.98655626 7.41039334 68.80078125 9 C70.16203125 9.99 70.16203125 9.99 71.55078125 11 C77.10317182 15.93545828 80.43455309 22.66176588 81.05712891 30.03662109 C81.1311381 33.46672087 81.11179816 36.88220541 81.05078125 40.3125 C81.045625 41.49134766 81.04046875 42.67019531 81.03515625 43.88476562 C80.95603 52.53425375 80.95603 52.53425375 79.80078125 56 C78.27734375 57.16796875 78.27734375 57.16796875 76.42578125 58.1875 C75.81992188 58.53167969 75.2140625 58.87585938 74.58984375 59.23046875 C72.80078125 60 72.80078125 60 69.80078125 60 C69.80078125 60.66 69.80078125 61.32 69.80078125 62 C56.36181968 62.09272418 42.92293436 62.16377763 29.48371792 62.20724869 C23.24318064 62.22811376 17.0028624 62.25641237 10.76245117 62.30175781 C4.7388958 62.34525305 -1.28444903 62.36914523 -7.30814934 62.37950897 C-9.60504406 62.38689365 -11.9019274 62.40131419 -14.19873238 62.42292023 C-17.41862927 62.45200223 -20.63765869 62.45595388 -23.85766602 62.45410156 C-24.80497589 62.46848267 -25.75228577 62.48286377 -26.728302 62.49768066 C-32.7524792 62.4602385 -36.24820489 61.48055828 -41.19921875 58 C-45.5889486 53.53718918 -46.80394938 48.70468522 -46.78515625 42.578125 C-46.75679687 41.72734375 -46.7284375 40.8765625 -46.69921875 40 C-46.70179687 39.14921875 -46.704375 38.2984375 -46.70703125 37.421875 C-46.61825574 31.63371205 -45.51640695 27.30049683 -43.19921875 22 C-42.86019531 21.22269531 -42.52117188 20.44539063 -42.171875 19.64453125 C-38.86728556 12.99280402 -34.55638108 7.05687333 -28.19921875 3 C-26.87921875 3 -25.55921875 3 -24.19921875 3 C-24.19921875 2.34 -24.19921875 1.68 -24.19921875 1 C-15.83833036 -1.98857287 -8.25381675 -4.04919562 0 0 Z " fill="#5374F5" transform="translate(94.19921875,117)"/>
<path d="M0 0 C0 0.66 0 1.32 0 2 C1.12148437 2.25523438 1.12148437 2.25523438 2.265625 2.515625 C3.25046875 2.75796875 4.2353125 3.0003125 5.25 3.25 C6.22453125 3.48203125 7.1990625 3.7140625 8.203125 3.953125 C11.35493723 5.1328536 12.7691338 6.52550601 15 9 C16.4540625 10.051875 16.4540625 10.051875 17.9375 11.125 C23.19477543 15.42155505 26.05114254 22.39672669 27 29 C27.82328924 41.44381444 27.17570494 51.47952615 18.75 61.375 C14.90448382 65.35966314 10.98455056 68.56851192 6 71 C4.96746094 71.54720703 4.96746094 71.54720703 3.9140625 72.10546875 C-0.49494944 73.45890539 -4.78958317 73.32842159 -9.375 73.3125 C-10.29539063 73.32861328 -11.21578125 73.34472656 -12.1640625 73.36132812 C-17.93641287 73.36545123 -21.89057864 72.70685226 -27 70 C-27.8765625 69.55011719 -28.753125 69.10023437 -29.65625 68.63671875 C-32.47321608 66.66953743 -34.35304211 64.49241751 -36.5 61.8125 C-37.2321875 60.91144531 -37.964375 60.01039062 -38.71875 59.08203125 C-39.4715625 58.06496094 -40.224375 57.04789063 -41 56 C-41.67832886 55.11562256 -41.67832886 55.11562256 -42.37036133 54.21337891 C-46.195526 48.79957275 -46.83077948 44.29686142 -46.6875 37.75 C-46.67388428 36.82413086 -46.66026855 35.89826172 -46.64624023 34.94433594 C-46.19770472 23.27628233 -41.57880094 15.81607149 -33.24609375 7.83984375 C-23.01413074 -0.54146856 -12.58870859 -0.39023551 0 0 Z " fill="#5373F5" transform="translate(121,31)"/>
<path d="M0 0 C1.4216509 -0.01149889 2.84325933 -0.03191798 4.26464844 -0.06152344 C12.36000963 -0.22990244 18.9317694 -0.2765666 25.89306641 4.29516602 C25.06423378 8.75847394 22.55831676 10.61061824 19.20556641 13.42016602 C10.8556606 20.78657 6.74498799 27.93905426 4.43603516 38.92407227 C3.89306641 41.29516602 3.89306641 41.29516602 2.89306641 42.29516602 C-1.32625994 42.68921538 -5.55932241 42.71359084 -9.79443359 42.79516602 C-10.97972656 42.84930664 -12.16501953 42.90344727 -13.38623047 42.95922852 C-21.71007794 43.08994513 -21.71007794 43.08994513 -25.25537109 41.07275391 C-28.49248055 37.82747479 -29.45594343 34.7433973 -29.83349609 30.22875977 C-29.83086531 28.39641763 -29.79636747 26.56387678 -29.73193359 24.73266602 C-29.74160156 23.35304687 -29.74160156 23.35304687 -29.75146484 21.94555664 C-29.64189511 15.01776106 -27.96568928 11.27117535 -23.10693359 6.21313477 C-22.44693359 5.64208008 -21.78693359 5.07102539 -21.10693359 4.48266602 C-20.44693359 3.8987207 -19.78693359 3.31477539 -19.10693359 2.71313477 C-13.71001589 -1.11319556 -6.34331336 0.03568569 0 0 Z " fill="#5575F5" transform="translate(35.10693359375,104.704833984375)"/>
<path d="M0 0 C1.42165043 -0.01155681 2.84325623 -0.03206706 4.26464844 -0.06152344 C6.33541869 -0.10433562 8.40491571 -0.12037982 10.47607422 -0.13061523 C12.31975586 -0.15248901 12.31975586 -0.15248901 14.20068359 -0.17480469 C18.29818795 0.38635751 20.37875987 1.79936395 23.63232422 4.29516602 C24.70482422 5.03766602 25.77732422 5.78016602 26.88232422 6.54516602 C32.09862373 11.76146553 32.0366132 19.30496061 32.13232422 26.35766602 C32.17357422 27.12143555 32.21482422 27.88520508 32.25732422 28.67211914 C32.32670104 33.74096328 31.38401446 37.32488104 27.78955078 41.02001953 C23.08925756 43.79838435 17.53217728 42.99269398 12.25732422 42.73266602 C11.04431641 42.70108398 9.83130859 42.66950195 8.58154297 42.63696289 C5.59598238 42.55468366 2.61540812 42.43977535 -0.36767578 42.29516602 C-0.55450928 41.56418701 -0.74134277 40.83320801 -0.93383789 40.08007812 C-2.2392154 35.11107562 -3.48296075 30.40687765 -5.93017578 25.85766602 C-6.34396484 25.07520508 -6.75775391 24.29274414 -7.18408203 23.48657227 C-7.76996094 22.40182617 -7.76996094 22.40182617 -8.36767578 21.29516602 C-8.68607422 20.56168945 -9.00447266 19.82821289 -9.33251953 19.07250977 C-10.30771645 16.94813696 -10.30771645 16.94813696 -13.36767578 16.29516602 C-14.70100911 14.96183268 -16.03434245 13.62849935 -17.36767578 12.29516602 C-19.65748394 10.55807017 -22.00352478 8.93188594 -24.36767578 7.29516602 C-22.99784075 4.13400826 -22.37861199 3.30245682 -19.36767578 1.29516602 C-12.99275909 -0.12419578 -6.49791621 0.03677499 0 0 Z " fill="#5575F5" transform="translate(185.36767578125,104.704833984375)"/>
<path d="M0 0 C9.11655703 5.1603153 9.11655703 5.1603153 11.1953125 9.87890625 C11.79254145 12.22996952 12.1044579 14.45792903 12.3125 16.875 C12.39371094 17.79152344 12.47492187 18.70804688 12.55859375 19.65234375 C12.84435708 25.9651154 12.1816554 29.82360268 8.3125 34.875 C6.3125 36.0625 6.3125 36.0625 4.3125 36.875 C3.6525 37.555625 2.9925 38.23625 2.3125 38.9375 C-0.733541 41.88835222 -3.86866425 42.03694311 -8 42.125 C-13.44211249 42.01811727 -17.53612015 40.89931261 -21.60546875 37.0703125 C-27.16157318 30.99869323 -29.07074321 26.60454233 -28.875 18.37109375 C-28.34761854 11.3503281 -26.02102138 6.77838959 -20.75 2.1875 C-14.16402128 -2.00357737 -7.39758601 -2.25689065 0 0 Z " fill="#5777F5" transform="translate(45.6875,53.125)"/>
<path d="M0 0 C1.01707031 -0.02578125 2.03414062 -0.0515625 3.08203125 -0.078125 C7.90234896 0.43119159 11.01907172 2.1460502 14.5234375 5.45703125 C19.53860987 11.86530705 21.34601381 16.75777507 20.84375 24.9375 C19.574075 31.34633572 16.31371718 35.99444049 11 39.75 C4.61968791 43.15283311 -1.68152465 43.08113012 -8.5625 41.125 C-13.10465569 39.45450491 -15.20152629 37.292798 -17.8125 33.25 C-17.8125 32.26 -17.8125 31.27 -17.8125 30.25 C-18.4725 30.25 -19.1325 30.25 -19.8125 30.25 C-21.50962575 24.40743595 -22.04900756 17.63791983 -19.94140625 11.86328125 C-15.47078031 4.16794152 -8.90191142 0.13436847 0 0 Z " fill="#5575F5" transform="translate(185.8125,51.75)"/>
<path d="M0 0 C-1.39750048 3.15835107 -3.05198234 5.32272825 -5.5 7.75 C-6.41265625 8.67039062 -6.41265625 8.67039062 -7.34375 9.609375 C-9 11 -9 11 -11 11 C-9.60249952 7.84164893 -7.94801766 5.67727175 -5.5 3.25 C-4.8915625 2.63640625 -4.283125 2.0228125 -3.65625 1.390625 C-2 0 -2 0 0 0 Z " fill="#DDE3FD" transform="translate(58,115)"/>
<path d="M0 0 C0.66 0.33 1.32 0.66 2 1 C0.92492371 2.29854721 -0.16043736 3.58858361 -1.25 4.875 C-1.85328125 5.59429687 -2.4565625 6.31359375 -3.078125 7.0546875 C-4.97087634 8.97052118 -6.53657727 9.96449045 -9 11 C-7.59155282 7.78475695 -5.89655214 5.67816132 -3.375 3.25 C-2.74335937 2.63640625 -2.11171875 2.0228125 -1.4609375 1.390625 C-0.73777344 0.70226563 -0.73777344 0.70226563 0 0 Z " fill="#728DF6" transform="translate(90,37)"/>
<path d="M0 0 C2.86237248 2.86237248 3.90730493 4.06081905 4.09765625 8.04296875 C4.06510417 10.02864583 4.03255208 12.01432292 4 14 C3.34 14 2.68 14 2 14 C1.34 9.38 0.68 4.76 0 0 Z " fill="#B7C4FA" transform="translate(56,63)"/>
</svg>
