<svg width="40" height="40" viewBox="0 0 40 40" fill="none" xmlns="http://www.w3.org/2000/svg">
<g clip-path="url(#clip0_1846_28234)">
<g filter="url(#filter0_d_1846_28234)">
<path d="M22.0549 6.25L36.4449 31.1733C36.6644 31.5534 36.7799 31.9845 36.7799 32.4233C36.7799 32.8622 36.6644 33.2933 36.445 33.6733C36.2255 34.0534 35.91 34.3689 35.5299 34.5884C35.1499 34.8078 34.7188 34.9233 34.2799 34.9233H5.49994C5.0611 34.9233 4.63 34.8078 4.24996 34.5884C3.86992 34.3689 3.55433 34.0534 3.33492 33.6733C3.11551 33.2933 3 32.8622 3 32.4233C3 31.9845 3.11552 31.5534 3.33494 31.1733L17.7249 6.25C18.6866 4.58333 21.0916 4.58333 22.0549 6.25ZM19.8899 9.16667L6.94327 31.59H32.8366L19.8899 9.16667ZM19.8899 26.0033C20.332 26.0033 20.7559 26.1789 21.0684 26.4915C21.381 26.804 21.5566 27.228 21.5566 27.67C21.5566 28.112 21.381 28.5359 21.0684 28.8485C20.7559 29.1611 20.332 29.3367 19.8899 29.3367C19.4479 29.3367 19.024 29.1611 18.7114 28.8485C18.3989 28.5359 18.2233 28.112 18.2233 27.67C18.2233 27.228 18.3989 26.804 18.7114 26.4915C19.024 26.1789 19.4479 26.0033 19.8899 26.0033ZM19.8899 14.3367C20.332 14.3367 20.7559 14.5123 21.0684 14.8248C21.381 15.1374 21.5566 15.5613 21.5566 16.0033V22.67C21.5566 23.112 21.381 23.5359 21.0684 23.8485C20.7559 24.1611 20.332 24.3367 19.8899 24.3367C19.4479 24.3367 19.024 24.1611 18.7114 23.8485C18.3989 23.5359 18.2233 23.112 18.2233 22.67V16.0033C18.2233 15.5613 18.3989 15.1374 18.7114 14.8248C19.024 14.5123 19.4479 14.3367 19.8899 14.3367Z" fill="#F24822"/>
</g>
</g>
<defs>
<filter id="filter0_d_1846_28234" x="-26.7" y="-20.7" width="93.1793" height="89.3229" filterUnits="userSpaceOnUse" color-interpolation-filters="sRGB">
<feFlood flood-opacity="0" result="BackgroundImageFix"/>
<feColorMatrix in="SourceAlpha" type="matrix" values="0 0 0 0 0 0 0 0 0 0 0 0 0 0 0 0 0 0 127 0" result="hardAlpha"/>
<feOffset dy="4"/>
<feGaussianBlur stdDeviation="14.85"/>
<feComposite in2="hardAlpha" operator="out"/>
<feColorMatrix type="matrix" values="0 0 0 0 1 0 0 0 0 0.76226 0 0 0 0 0.379808 0 0 0 0.79 0"/>
<feBlend mode="normal" in2="BackgroundImageFix" result="effect1_dropShadow_1846_28234"/>
<feBlend mode="normal" in="SourceGraphic" in2="effect1_dropShadow_1846_28234" result="shape"/>
</filter>
<clipPath id="clip0_1846_28234">
<rect width="40" height="40" fill="white"/>
</clipPath>
</defs>
</svg>
